<?xml version="1.0" encoding="UTF-8"?>
<svg version="1.1" xmlns="http://www.w3.org/2000/svg" width="338" height="347">
<path d="M0 0 C111.54 0 223.08 0 338 0 C338 114.51 338 229.02 338 347 C226.46 347 114.92 347 0 347 C0 232.49 0 117.98 0 0 Z " fill="#FEFEFE" transform="translate(0,0)"/>
<path d="M0 0 C1.35834961 -0.00580078 1.35834961 -0.00580078 2.74414062 -0.01171875 C3.60845703 -0.01042969 4.47277344 -0.00914063 5.36328125 -0.0078125 C6.14614502 -0.00668457 6.92900879 -0.00555664 7.7355957 -0.00439453 C9.6875 0.125 9.6875 0.125 11.6875 1.125 C15.6475 1.455 19.6075 1.785 23.6875 2.125 C23.6875 10.705 23.6875 19.285 23.6875 28.125 C23.0275 28.125 22.3675 28.125 21.6875 28.125 C21.44 26.92875 21.1925 25.7325 20.9375 24.5 C18.94570301 16.61638393 14.24996618 12.49997745 7.6875 8.125 C0.73162754 6.28827048 -8.00252583 5.65535394 -14.6875 8.625 C-20.57626709 12.13081261 -25.24918512 17.58632608 -27.3125 24.125 C-28.18482398 31.21378016 -28.14069347 37.84771509 -24.16796875 43.95703125 C-20.59624347 48.13031026 -16.34471113 51.47692368 -12.01123047 54.81591797 C-10.29922265 56.13523184 -8.6032228 57.47289476 -6.91015625 58.81640625 C-2.18518624 62.55792553 2.56972247 66.26043863 7.3359375 69.94921875 C22.96935259 82.08160884 38.00314736 93.88343951 42.6875 114.125 C44.13410047 128.96179401 42.00338557 141.15506672 32.6875 153.125 C29.37252106 156.51051041 25.95922137 159.98913932 21.6875 162.125 C22.17239797 169.36152488 25.08181208 175.62847505 27.81640625 182.27734375 C28.33133017 183.54501414 28.84555577 184.81296839 29.3591156 186.08119202 C30.70516517 189.39988389 32.06059875 192.71466176 33.41809082 196.02868652 C34.80465009 199.41848315 36.18220592 202.81193356 37.56054688 206.20507812 C40.26078315 212.8486398 42.97095366 219.48808831 45.6875 226.125 C48.31631447 223.49618553 49.32245259 220.47885154 50.6796875 217.0859375 C50.97749115 216.35391113 51.2752948 215.62188477 51.5821228 214.86767578 C52.23449338 213.26297061 52.88462812 211.65735516 53.53283691 210.05096436 C55.31578596 205.63375302 57.11596171 201.22356013 58.9140625 196.8125 C59.29614868 195.87401215 59.67823486 194.93552429 60.07189941 193.96859741 C64.20911798 183.81883607 68.42544391 173.70236656 72.64862061 163.58813477 C73.93360824 160.5093246 75.21639005 157.42960425 76.49853516 154.34960938 C83.28597357 138.05055052 83.28597357 138.05055052 86.7041626 130.01083374 C87.86055077 127.28940865 89.00981261 124.56500818 90.15808105 121.84014893 C90.91047621 120.0638011 91.67427002 118.29229461 92.43847656 116.52099609 C93.09541504 114.95986084 93.09541504 114.95986084 93.765625 113.3671875 C94.14106445 112.4891748 94.51650391 111.61116211 94.90332031 110.70654297 C95.81863577 107.69329714 95.92712686 105.25895403 95.6875 102.125 C94.2589939 99.1934887 94.2589939 99.1934887 91.6875 97.125 C88.04567665 96.23444264 88.04567665 96.23444264 84.6875 96.125 C84.6875 95.135 84.6875 94.145 84.6875 93.125 C99.8675 93.125 115.0475 93.125 130.6875 93.125 C130.6875 94.115 130.6875 95.105 130.6875 96.125 C130.03523437 96.22296875 129.38296875 96.3209375 128.7109375 96.421875 C120.55212031 97.81777883 115.6472555 100.32834172 110.6875 107.125 C109.45298244 109.51365925 108.31010275 111.8693876 107.21875 114.3203125 C106.74381859 115.36405281 106.74381859 115.36405281 106.2592926 116.42887878 C105.22834055 118.69948089 104.20778849 120.97458881 103.1875 123.25 C102.46594004 124.84553449 101.74384744 126.4408282 101.02124023 128.03588867 C98.89909397 132.72739382 96.79075618 137.42500028 94.6875 142.125 C94.40545715 142.75500916 94.12341431 143.38501831 93.83282471 144.03411865 C91.1619822 150.00339898 88.5087711 155.98038557 85.86328125 161.9609375 C82.44012283 169.69518756 78.98275915 177.41401243 75.52520752 185.13293457 C74.44073167 187.55528156 73.35758035 189.97821616 72.27490234 192.40136719 C68.96240847 199.81414907 65.64572826 207.22482115 62.30227661 214.623703 C60.83773571 217.86763093 59.37925136 221.11426143 57.92175293 224.36135864 C57.23562604 225.88610062 56.54683591 227.40964757 55.85510254 228.93185425 C51.79597172 237.86736789 48.29286736 246.63876444 45.6875 256.125 C42.6875 255.125 42.6875 255.125 40.98022461 251.8984375 C40.33906192 250.43708402 39.70988019 248.97044157 39.08984375 247.5 C38.56965416 246.30270515 38.56965416 246.30270515 38.03895569 245.08122253 C36.89107657 242.43330495 35.75822621 239.77921755 34.625 237.125 C33.83121249 235.28767682 33.03627551 233.45084985 32.24023438 231.61450195 C30.57215235 227.763972 28.90916833 223.91129746 27.24951172 220.05712891 C23.50024973 211.36172721 19.68959007 202.69328617 15.87893677 194.0246582 C14.70110309 191.34346575 13.5258839 188.66114115 12.35131836 185.97851562 C11.63008302 184.33331692 10.90881214 182.68813379 10.1875 181.04296875 C9.86121109 180.29685837 9.53492218 179.55074799 9.19874573 178.7820282 C7.76811923 175.52331948 6.32749182 172.28454674 4.6875 169.125 C4.02331055 169.14594727 3.35912109 169.16689453 2.67480469 169.18847656 C-15.33615909 169.6820132 -30.56609159 169.21640422 -44.4140625 156.140625 C-53.26384595 146.42469253 -57.05550294 135.2995761 -56.66015625 122.1328125 C-55.44489838 111.61878376 -50.49064638 100.09035513 -42.3125 93.125 C-39.89532471 92.64398193 -39.89532471 92.64398193 -37.17675781 92.67089844 C-35.64562347 92.67135162 -35.64562347 92.67135162 -34.08355713 92.67181396 C-32.98863953 92.69245911 -31.89372192 92.71310425 -30.765625 92.734375 C-29.6392865 92.74003479 -28.512948 92.74569458 -27.35247803 92.75152588 C-23.75538618 92.77391455 -20.15929074 92.82411787 -16.5625 92.875 C-14.1237123 92.89506167 -11.68490899 92.91331302 -9.24609375 92.9296875 C-3.26788926 92.97378756 2.70973419 93.04072537 8.6875 93.125 C8.6875 94.115 8.6875 95.105 8.6875 96.125 C6.66927083 96.54817708 4.65104167 96.97135417 2.6328125 97.39453125 C0.31703451 98.04808838 0.31703451 98.04808838 -1.3125 101.125 C-1.76646741 106.42633495 -0.81338772 110.25783753 1.13671875 115.16796875 C1.39121292 115.81768143 1.64570709 116.4673941 1.90791321 117.13679504 C2.71924756 119.19992624 3.54685872 121.25606616 4.375 123.3125 C4.91187036 124.67210675 5.44768605 126.03213045 5.98242188 127.39257812 C9.11933777 135.344111 12.36835865 143.24773229 15.6875 151.125 C22.3767952 145.91844312 25.90531995 139.81983386 27.40234375 131.43359375 C28.8510647 119.70490771 25.96256377 110.67204434 19.0546875 101.09765625 C17.6875 99.125 17.6875 99.125 16.7578125 96.99609375 C15.39224308 94.60883918 14.16135901 94.27185116 11.6875 93.125 C9.92855453 91.72409513 8.20339517 90.28044704 6.5 88.8125 C1.54379225 84.59366973 -3.55674452 80.60978066 -8.75 76.6875 C-38.09690488 54.41857073 -38.09690488 54.41857073 -40.3125 41.125 C-41.28262795 30.0241916 -39.04727379 20.63131513 -31.94921875 11.90625 C-22.61740021 1.75038065 -13.42977381 -0.05860265 0 0 Z " fill="#AE9654" transform="translate(153.3125,41.875)"/>
<path d="M0 0 C15.18 0 30.36 0 46 0 C46 0.99 46 1.98 46 3 C45.02160156 3.14695313 45.02160156 3.14695313 44.0234375 3.296875 C35.86462031 4.69277883 30.9597555 7.20334172 26 14 C24.76548244 16.38865925 23.62260275 18.7443876 22.53125 21.1953125 C22.21462906 21.89113937 21.89800812 22.58696625 21.5717926 23.30387878 C20.54084055 25.57448089 19.52028849 27.84958881 18.5 30.125 C17.77844004 31.72053449 17.05634744 33.3158282 16.33374023 34.91088867 C14.21159397 39.60239382 12.10325618 44.30000028 10 49 C9.71795715 49.63000916 9.43591431 50.26001831 9.14532471 50.90911865 C6.4744822 56.87839898 3.8212711 62.85538557 1.17578125 68.8359375 C-2.24737717 76.57018756 -5.70474085 84.28901243 -9.16229248 92.00793457 C-10.24676833 94.43028156 -11.32991965 96.85321616 -12.41259766 99.27636719 C-15.72509153 106.68914907 -19.04177174 114.09982115 -22.38522339 121.498703 C-23.84976429 124.74263093 -25.30824864 127.98926143 -26.76574707 131.23635864 C-27.45187396 132.76110062 -28.14066409 134.28464757 -28.83239746 135.80685425 C-32.89152828 144.74236789 -36.39463264 153.51376444 -39 163 C-42 162 -42 162 -43.70727539 158.7734375 C-44.34842521 157.31207838 -44.97760808 155.84543662 -45.59765625 154.375 C-45.94449463 153.57684875 -46.29133301 152.77869751 -46.64868164 151.95635986 C-47.79670648 149.30847359 -48.92958348 146.65438151 -50.0625 144 C-50.85562316 142.16197441 -51.64982682 140.32441472 -52.44506836 138.48730469 C-53.6866099 135.61815034 -54.92705334 132.74855701 -56.16334534 129.87713623 C-59.12109018 123.00952038 -62.1249458 116.16356294 -65.15625 109.328125 C-65.98692491 107.45183493 -66.81757311 105.57553303 -67.64819336 103.69921875 C-68.84949448 100.98620824 -70.05193577 98.27373764 -71.2583313 95.56298828 C-72.37612094 93.04924182 -73.48756336 90.53277789 -74.59765625 88.015625 C-74.92910645 87.2746759 -75.26055664 86.53372681 -75.60205078 85.77032471 C-77.2120175 82.10442749 -78.20583308 78.97083462 -79 75 C-74.38 73.35 -69.76 71.7 -65 70 C-61.45933078 76.7634008 -58.60893345 83.71932943 -55.796875 90.8125 C-55.3142218 92.02196289 -54.8315686 93.23142578 -54.33428955 94.47753906 C-53.06211334 97.66555149 -51.79409088 100.85519957 -50.52697754 104.04522705 C-49.22886243 107.31111336 -47.92675496 110.57540697 -46.625 113.83984375 C-44.07946209 120.2250245 -41.53831644 126.61194516 -39 133 C-36.37118553 130.37118553 -35.36504741 127.35385154 -34.0078125 123.9609375 C-33.71000885 123.22891113 -33.4122052 122.49688477 -33.1053772 121.74267578 C-32.45300662 120.13797061 -31.80287188 118.53235516 -31.15466309 116.92596436 C-29.37171404 112.50875302 -27.57153829 108.09856013 -25.7734375 103.6875 C-25.39135132 102.74901215 -25.00926514 101.81052429 -24.61560059 100.84359741 C-20.47838202 90.69383607 -16.26205609 80.57736656 -12.03887939 70.46313477 C-10.75389176 67.3843246 -9.47110995 64.30460425 -8.18896484 61.22460938 C-1.40152643 44.92555052 -1.40152643 44.92555052 2.0166626 36.88583374 C3.17305077 34.16440865 4.32231261 31.44000818 5.47058105 28.71514893 C6.22297621 26.9388011 6.98677002 25.16729461 7.75097656 23.39599609 C8.40791504 21.83486084 8.40791504 21.83486084 9.078125 20.2421875 C9.45356445 19.3641748 9.82900391 18.48616211 10.21582031 17.58154297 C11.13113577 14.56829714 11.23962686 12.13395403 11 9 C9.5714939 6.0684887 9.5714939 6.0684887 7 4 C3.35817665 3.10944264 3.35817665 3.10944264 0 3 C0 2.01 0 1.02 0 0 Z " fill="#080808" transform="translate(238,135)"/>
<path d="M0 0 C7.19569745 1.19928291 11.83264318 5.04745133 16.0480957 10.84179688 C20.00590376 17.31418417 22.80713437 24.42522318 25.8125 31.375 C26.51274545 32.97176076 27.21391122 34.56811826 27.91601562 36.1640625 C29.58182354 39.95815501 31.2248345 43.76157281 32.85968018 47.5690918 C33.68978429 49.48595112 34.53835707 51.39328322 35.39404297 53.29882812 C35.86084473 54.36037109 36.32764648 55.42191406 36.80859375 56.515625 C37.21263428 57.41829102 37.6166748 58.32095703 38.03295898 59.25097656 C38.81918776 61.85407109 38.68089663 63.1070069 37.75 65.625 C26.4562666 68.23948857 15.87044492 67.38318418 5.75 61.625 C-3.09105791 56.00383355 -9.45531391 48.88000118 -12.25 38.625 C-12.69602548 35.38395001 -12.77395908 32.20633808 -12.75 28.9375 C-12.74645508 28.06407959 -12.74291016 27.19065918 -12.73925781 26.29077148 C-12.51635016 17.52387828 -10.20241018 1.96200196 0 0 Z " fill="#FCFCFB" transform="translate(115.25,137.375)"/>
<path d="M0 0 C0.6180249 0.49894775 1.2360498 0.99789551 1.87280273 1.51196289 C2.51934814 2.04039795 3.16589355 2.56883301 3.83203125 3.11328125 C8.01465947 6.51730101 12.19748375 9.84551119 16.58203125 12.98828125 C25.02706321 19.53716453 31.5089115 29.90886134 33.64453125 40.42578125 C34.4722005 51.57044391 32.3010569 60.36053727 25.64453125 69.42578125 C22.76953125 72.05078125 22.76953125 72.05078125 20.64453125 73.42578125 C17.87970181 68.04177908 15.41103832 62.64426848 13.19140625 57.015625 C12.88632141 56.24448868 12.58123657 55.47335236 12.26690674 54.67884827 C11.62957897 53.06204802 10.9944094 51.44439548 10.36132812 49.82592773 C9.39395135 47.36180411 8.41002606 44.90469161 7.42578125 42.44726562 C6.80495729 40.86629039 6.18513101 39.28492295 5.56640625 37.703125 C5.27272156 36.97689438 4.97903687 36.25066376 4.67645264 35.50242615 C2.94679388 31.01042744 2.15738681 27.31570098 2.64453125 22.42578125 C4.76953125 19.48828125 4.76953125 19.48828125 7.64453125 17.42578125 C10.95703125 17.11328125 10.95703125 17.11328125 13.64453125 17.42578125 C13.64453125 16.43578125 13.64453125 15.44578125 13.64453125 14.42578125 C13.05027344 14.43625488 12.45601562 14.44672852 11.84375 14.45751953 C9.11072136 14.49949256 6.37776088 14.52523705 3.64453125 14.55078125 C2.70996094 14.56753906 1.77539062 14.58429688 0.8125 14.6015625 C-12.66506289 14.69581119 -12.66506289 14.69581119 -17.35546875 10.73828125 C-18.81374514 7.36601709 -18.86576273 5.06162588 -18.35546875 1.42578125 C-15.89851809 -1.89832847 -14.2508344 -3.30012722 -10.29296875 -4.51171875 C-5.91228737 -4.60492474 -3.31546426 -2.69791109 0 0 Z " fill="#FCFCFB" transform="translate(148.35546875,120.57421875)"/>
<path d="M0 0 C16.17 0 32.34 0 49 0 C49 0.66 49 1.32 49 2 C46.98177083 2.42317708 44.96354167 2.84635417 42.9453125 3.26953125 C40.62953451 3.92308838 40.62953451 3.92308838 39 7 C38.53920991 12.33159828 39.51861172 16.17730408 41.484375 21.11328125 C41.86967377 22.09496529 41.86967377 22.09496529 42.26275635 23.09648132 C43.08078483 25.17306867 43.91501012 27.24268298 44.75 29.3125 C45.29535681 30.68902338 45.83963665 32.06597394 46.3828125 33.44335938 C49.27554122 40.76139956 49.27554122 40.76139956 52.28320312 48.03271484 C52.64865234 48.90234863 53.01410156 49.77198242 53.390625 50.66796875 C53.70547852 51.39653076 54.02033203 52.12509277 54.34472656 52.87573242 C55 55 55 55 55 60 C51.04 61.98 47.08 63.96 43 66 C39.80475903 62.80475903 38.69541782 60.45967176 36.92578125 56.33984375 C36.64079269 55.68189819 36.35580414 55.02395264 36.06217957 54.34606934 C35.45403302 52.9398073 34.8490885 51.53215695 34.24707031 50.1232605 C33.30871359 47.9286444 32.36082996 45.73837816 31.41015625 43.54907227 C28.75089811 37.41882429 26.11472222 31.27936235 23.51171875 25.125 C23.16262451 24.31168213 22.81353027 23.49836426 22.45385742 22.66040039 C21.84537631 21.24237619 21.24680552 19.82002978 20.66137695 18.39233398 C18.02608666 12.28056937 14.64174442 7.46227946 8.7890625 4.22265625 C7.74492188 3.83980469 6.70078125 3.45695313 5.625 3.0625 C4.56539063 2.66160156 3.50578125 2.26070312 2.4140625 1.84765625 C1.61742188 1.56792969 0.82078125 1.28820312 0 1 C0 0.67 0 0.34 0 0 Z " fill="#040404" transform="translate(113,136)"/>
<path d="M0 0 C3.80285865 2.0090574 7.09334467 4.08076405 9 8 C9.58052227 12.28941457 9.47224019 15.85668166 7.8125 19.875 C5.05427609 23.10877976 2.93073243 24.73917618 -1.37109375 25.3203125 C-5.63789757 25.51051178 -8.25795044 25.43286224 -12 23.25 C-15.63342269 19.16239947 -16.55004761 15.71538057 -16.4609375 10.32421875 C-15.65549538 6.26287923 -13.05462619 3.65894922 -10 1 C-6.78548618 -0.60725691 -3.48666924 -0.47397924 0 0 Z " fill="#AE9654" transform="translate(201,4)"/>
<path d="M0 0 C3.3792573 2.03005291 6.22397384 4.44794768 8 8 C8.38893819 12.66725826 8.45147837 15.07967871 6.375 19.3125 C3.32638755 22.76224567 0.74115192 24.82228288 -3.98828125 25.12890625 C-8.03910069 24.87716041 -9.73078812 24.22338858 -12.9375 21.5625 C-16.22769635 17.4746803 -16.3891669 14.69733281 -16.359375 9.55078125 C-15.78039966 5.44131496 -14.00085071 3.78650423 -11 1 C-7.48308711 -0.75845645 -3.82789463 -0.68065337 0 0 Z " fill="#F7F7F7" transform="translate(78,312)"/>
<path d="M0 0 C3.6578218 2.03993908 5.66946174 3.50419262 8 7 C8.66799205 13.90258449 8.66799205 13.90258449 6.25 17.875 C3.16344962 20.79007536 1.34062405 21.82513599 -2.875 22.375 C-6.84487514 21.89861498 -8.89536536 20.46959574 -12 18 C-14.37955059 14.43067411 -14.52911482 12.41265019 -14.4609375 8.2265625 C-13.9123355 5.57653589 -13.18156354 4.71547495 -11.125 3 C-6.96128237 0.33522072 -4.97779365 -0.478634 0 0 Z " fill="#F6F6F6" transform="translate(318,315)"/>
<path d="M0 0 C4.83562945 0.3223753 7.13326813 1.6890175 10.5625 5 C12.27868326 8.25171564 12.13162088 10.62460162 11.75 14.25 C10.0425477 18.09176767 8.58665883 19.66694618 4.75 21.25 C1.64956306 21.82682548 -1.15203843 21.86187497 -4.25 21.25 C-7.57983304 18.59972472 -8.85097417 17.12970848 -9.72265625 13.0234375 C-10.01250863 8.57903427 -9.69223316 6.79428697 -6.8125 3.25 C-5.966875 2.59 -5.12125 1.93 -4.25 1.25 C-3.25 0.25 -3.25 0.25 0 0 Z " fill="#AE9754" transform="translate(112.25,233.75)"/>
<path d="M0 0 C0.66 0.66 1.32 1.32 2 2 C1.67 2.99 1.34 3.98 1 5 C0.34 4.01 -0.32 3.02 -1 2 C-4.08365871 1.7497843 -4.08365871 1.7497843 -7 2 C-7.44845249 5.06442535 -7.51782007 7.19788655 -5.8046875 9.8515625 C-3.16082334 12.97371364 -0.44295468 15.74883732 3 18 C3.15149298 14.37114676 3.15149298 14.37114676 2 11 C3.32 11 4.64 11 6 11 C5.93039062 12.03060547 5.93039062 12.03060547 5.859375 13.08203125 C5.82328125 13.98308594 5.7871875 14.88414062 5.75 15.8125 C5.68039062 17.15248047 5.68039062 17.15248047 5.609375 18.51953125 C5.76018967 21.16674709 5.76018967 21.16674709 8.015625 22.82421875 C8.67046875 23.21222656 9.3253125 23.60023438 10 24 C8.865625 23.814375 7.73125 23.62875 6.5625 23.4375 C5.386875 23.293125 4.21125 23.14875 3 23 C2.67 23.33 2.34 23.66 2 24 C-3.0713694 24.65739974 -6.82919618 24.75757894 -11.1875 21.9375 C-13 19 -13 19 -12.8125 15.1875 C-12.544375 14.135625 -12.27625 13.08375 -12 12 C-11.01 11.67 -10.02 11.34 -9 11 C-9.33 10.34 -9.66 9.68 -10 9 C-10.44396083 3.78346028 -10.44396083 3.78346028 -8.9375 1.125 C-5.93267901 -0.61973477 -3.39189869 -0.30835443 0 0 Z " fill="#363636" transform="translate(262,312)"/>
<path d="M0 0 C2.5 1.5625 2.5 1.5625 4 4 C4.5625 7.4375 4.5625 7.4375 4 11 C1.55401113 14.38121991 0.10703441 15.76936783 -4 16.625 C-8.10703441 15.76936783 -9.55401113 14.38121991 -12 11 C-12.62491523 7.04220351 -12.61006839 4.99136114 -10.5 1.5625 C-6.97873756 -0.63828902 -4.04560357 -0.80414661 0 0 Z " fill="#080808" transform="translate(142,118)"/>
<path d="M0 0 C0.33 0 0.66 0 1 0 C1.08564209 0.65597168 1.17128418 1.31194336 1.25952148 1.98779297 C1.64846501 4.950697 2.04291273 7.91284253 2.4375 10.875 C2.57220703 11.90753906 2.70691406 12.94007813 2.84570312 14.00390625 C3.04389648 15.48310547 3.04389648 15.48310547 3.24609375 16.9921875 C3.36654053 17.90339355 3.4869873 18.81459961 3.61108398 19.75341797 C3.89362951 22.02733424 3.89362951 22.02733424 5 24 C3.35 24 1.7 24 0 24 C0 18.39 0 12.78 0 7 C-0.66 7 -1.32 7 -2 7 C-2.0825 7.66 -2.165 8.32 -2.25 9 C-3.08549686 12.34198743 -4.43654695 15.01638312 -6.0625 18.03515625 C-7.00551426 20.01155698 -7.54326718 21.86382253 -8 24 C-8.66 24 -9.32 24 -10 24 C-12.31 19.05 -14.62 14.1 -17 9 C-17.66 13.95 -18.32 18.9 -19 24 C-19.99 23.67 -20.98 23.34 -22 23 C-21.69088746 20.08293797 -21.37784575 17.1663891 -21.0625 14.25 C-20.97548828 13.425 -20.88847656 12.6 -20.79882812 11.75 C-20.71181641 10.95078125 -20.62480469 10.1515625 -20.53515625 9.328125 C-20.456604 8.5949707 -20.37805176 7.86181641 -20.29711914 7.10644531 C-20.0026123 5.01852006 -19.54882504 3.03447232 -19 1 C-18.34 1 -17.68 1 -17 1 C-15.82625827 3.43431639 -14.66084237 5.87204182 -13.5 8.3125 C-13.16613281 9.00279297 -12.83226562 9.69308594 -12.48828125 10.40429688 C-10 15.66015625 -10 15.66015625 -10 19 C-9.34 19 -8.68 19 -8 19 C-7.73445312 18.15179688 -7.46890625 17.30359375 -7.1953125 16.4296875 C-5.95559534 12.87259054 -4.47517384 9.53406601 -2.875 6.125 C-2.33617187 4.97257812 -1.79734375 3.82015625 -1.2421875 2.6328125 C-0.83226562 1.76398438 -0.42234375 0.89515625 0 0 Z " fill="#3A3A3A" transform="translate(233,312)"/>
<path d="M0 0 C0.66 0 1.32 0 2 0 C2.2673999 0.62567871 2.5347998 1.25135742 2.81030273 1.89599609 C4.01874018 4.72259983 5.22810848 7.54880435 6.4375 10.375 C7.06881836 11.85226562 7.06881836 11.85226562 7.71289062 13.359375 C8.11572266 14.30039062 8.51855469 15.24140625 8.93359375 16.2109375 C9.4913147 17.51490479 9.4913147 17.51490479 10.06030273 18.84521484 C10.67127388 20.24621026 11.31646889 21.63293778 12 23 C10.35 23 8.7 23 7 23 C6.67 20.36 6.34 17.72 6 15 C2.7 15 -0.6 15 -4 15 C-4.33 17.64 -4.66 20.28 -5 23 C-6.65 23 -8.3 23 -10 23 C-9.34 22.67 -8.68 22.34 -8 22 C-7.26353035 20.05993303 -7.26353035 20.05993303 -6.6875 17.6875 C-4.96945506 11.5680719 -2.53068059 5.82156564 0 0 Z " fill="#282828" transform="translate(123,313)"/>
<path d="M0 0 C2.62144728 2.30804885 3.78384259 4.427267 5.04296875 7.66796875 C5.39423828 8.56064453 5.74550781 9.45332031 6.10742188 10.37304688 C6.64206055 11.76620117 6.64206055 11.76620117 7.1875 13.1875 C7.55552734 14.12787109 7.92355469 15.06824219 8.30273438 16.03710938 C9.2088805 18.35543127 10.10765118 20.67634016 11 23 C9.35 23 7.7 23 6 23 C5.67 20.69 5.34 18.38 5 16 C1.7 15.67 -1.6 15.34 -5 15 C-5.33 17.64 -5.66 20.28 -6 23 C-7.32 22.67 -8.64 22.34 -10 22 C-9.61328125 21.16597656 -9.2265625 20.33195312 -8.828125 19.47265625 C-5.83445236 13.00365573 -2.8668411 6.52627945 0 0 Z " fill="#313131" transform="translate(196,313)"/>
<path d="M0 0 C3.3792573 2.03005291 6.22397384 4.44794768 8 8 C8.38893819 12.66725826 8.45147837 15.07967871 6.375 19.3125 C3.32638755 22.76224567 0.74115192 24.82228288 -3.98828125 25.12890625 C-8.03910069 24.87716041 -9.73078812 24.22338858 -12.9375 21.5625 C-16.22769635 17.4746803 -16.3891669 14.69733281 -16.359375 9.55078125 C-15.78039966 5.44131496 -14.00085071 3.78650423 -11 1 C-7.48308711 -0.75845645 -3.82789463 -0.68065337 0 0 Z M-12 4 C-14.32766479 6.99271187 -14.41185662 10.23180904 -14.328125 13.96484375 C-13.79173147 17.29176075 -12.11151942 19.45375599 -10 22 C-6.80508241 23.59745879 -3.46790611 23.50816842 0 23 C2.96858157 20.79259319 3.82865791 19.51402627 5 16 C5.50920746 11.54234777 5.52807297 8.05614594 3.5 4 C-1.47205041 0.02235967 -7.04718937 -0.22445612 -12 4 Z " fill="#373737" transform="translate(78,312)"/>
<path d="M0 0 C3.6578218 2.03993908 5.66946174 3.50419262 8 7 C8.66799205 13.90258449 8.66799205 13.90258449 6.25 17.875 C3.16344962 20.79007536 1.34062405 21.82513599 -2.875 22.375 C-6.84487514 21.89861498 -8.89536536 20.46959574 -12 18 C-14.37955059 14.43067411 -14.52911482 12.41265019 -14.4609375 8.2265625 C-13.9123355 5.57653589 -13.18156354 4.71547495 -11.125 3 C-6.96128237 0.33522072 -4.97779365 -0.478634 0 0 Z M-10 4.0625 C-12.50978123 7.74874118 -12.62608836 9.61738151 -12 14 C-10.25271222 17.72803465 -10.25271222 17.72803465 -7 20 C-3.98834116 20.34560019 -1.905902 20.58340289 1 20 C4.33657872 17.08049362 5.81898463 15.29296691 6.4375 10.875 C6.01236223 8.08123751 5.57899473 6.3269396 4 4 C-0.95353361 0.69764426 -5.23670368 0.78773378 -10 4.0625 Z " fill="#373737" transform="translate(318,315)"/>
<path d="M0 0 C1.02083176 0.00022659 2.04166351 0.00045319 3.09342957 0.00068665 C4.7435479 0.02391243 4.7435479 0.02391243 6.42700195 0.04760742 C8.11863213 0.05397469 8.11863213 0.05397469 9.84443665 0.06047058 C13.45162687 0.07728306 17.05826142 0.11494089 20.6652832 0.15307617 C23.10863452 0.16811965 25.55199458 0.18180863 27.99536133 0.1940918 C33.98969202 0.22719501 39.98369792 0.27742024 45.9777832 0.34057617 C45.9777832 0.67057617 45.9777832 1.00057617 45.9777832 1.34057617 C45.41037415 1.34866302 44.84296509 1.35674988 44.25836182 1.36508179 C38.35340945 1.45113074 32.44879266 1.55063455 26.54418945 1.65795898 C24.34047073 1.69624503 22.1366896 1.73109855 19.93286133 1.76245117 C16.76531669 1.80810947 13.59820159 1.86610319 10.4309082 1.92651367 C8.95258514 1.94384048 8.95258514 1.94384048 7.44439697 1.96151733 C6.52374451 1.98138702 5.60309204 2.00125671 4.65454102 2.02172852 C3.4420871 2.04171402 3.4420871 2.04171402 2.20513916 2.06210327 C-1.15976131 2.48279651 -3.33896463 3.46858031 -5.4362793 6.14526367 C-5.83588867 6.8284668 -6.23549805 7.51166992 -6.6472168 8.21557617 C-7.05198242 8.89362305 -7.45674805 9.57166992 -7.8737793 10.27026367 C-8.64493782 11.6604474 -9.36640916 13.07926593 -10.0378418 14.52026367 C-11.29343788 16.84211993 -12.61662597 17.37833984 -15.0222168 18.34057617 C-14.676364 11.59644672 -10.81310796 6.83259729 -6.73796082 1.73368835 C-4.41360275 -0.15359291 -2.97165714 -0.02201228 0 0 Z " fill="#897E5E" transform="translate(116.022216796875,134.659423828125)"/>
<path d="M0 0 C1.98 0 3.96 0 6 0 C2 8 -2 16 -6 24 C-8.10588492 21.89411508 -8.78833995 20.4422281 -9.91015625 17.71875 C-10.26013672 16.87699219 -10.61011719 16.03523438 -10.97070312 15.16796875 C-11.33099609 14.28753906 -11.69128906 13.40710938 -12.0625 12.5 C-12.78209792 10.76022875 -13.50212929 9.0206367 -14.22265625 7.28125 C-14.53984619 6.50845703 -14.85703613 5.73566406 -15.18383789 4.93945312 C-15.74469821 3.60667586 -16.35333787 2.29332425 -17 1 C-15.68 1 -14.36 1 -13 1 C-11.9936345 3.43504509 -10.99473587 5.87270864 -10 8.3125 C-9.71382813 9.00279297 -9.42765625 9.69308594 -9.1328125 10.40429688 C-7.91089256 13.41545674 -7 15.71886984 -7 19 C-6.34 19 -5.68 19 -5 19 C-4.80664062 18.40832031 -4.61328125 17.81664062 -4.4140625 17.20703125 C-2.16527727 10.38274737 -2.16527727 10.38274737 -0.8125 7.25 C0.1052535 4.70852877 0.15324355 2.68176217 0 0 Z " fill="#222222" transform="translate(106,312)"/>
<path d="M0 0 C1.98 0 3.96 0 6 0 C5.67 0.66 5.34 1.32 5 2 C4.34 2 3.68 2 3 2 C2.62875 3.216875 2.2575 4.43375 1.875 5.6875 C-0.22024496 12.02384468 -3.12789535 17.98624042 -6 24 C-8.18639521 21.26632529 -9.71054657 18.68588702 -11.04296875 15.453125 C-11.56987305 14.18662109 -11.56987305 14.18662109 -12.10742188 12.89453125 C-12.46384766 12.02183594 -12.82027344 11.14914062 -13.1875 10.25 C-13.55552734 9.36183594 -13.92355469 8.47367187 -14.30273438 7.55859375 C-15.20692623 5.374442 -16.10581317 3.1882624 -17 1 C-15.68 1 -14.36 1 -13 1 C-11.99600476 3.62353518 -10.99665555 6.24867795 -10 8.875 C-9.71382812 9.62136719 -9.42765625 10.36773437 -9.1328125 11.13671875 C-7 16.7734375 -7 16.7734375 -7 19 C-6.34 19 -5.68 19 -5 19 C-4.87753906 18.27941406 -4.75507813 17.55882812 -4.62890625 16.81640625 C-3.80534626 13.12828979 -2.33709472 9.86040737 -0.83984375 6.40234375 C0.2200057 3.79483389 0.2200057 3.79483389 0 0 Z " fill="#1E1E1E" transform="translate(26,312)"/>
<path d="M0 0 C2.9375 1 2.9375 1 5 2 C4.67 2.99 4.34 3.98 4 5 C3.34 4.34 2.68 3.68 2 3 C-0.10417968 2.64360439 -0.10417968 2.64360439 -2.4375 2.6875 C-3.21996094 2.67074219 -4.00242187 2.65398437 -4.80859375 2.63671875 C-7.04572157 2.84895836 -7.04572157 2.84895836 -8.76171875 4.20703125 C-10.39681607 6.57456965 -10.4005277 8.14089781 -10.375 11 C-10.38273437 11.86625 -10.39046875 12.7325 -10.3984375 13.625 C-10.17301275 16.03538591 -10.17301275 16.03538591 -8.71875 17.7890625 C-5.76980932 19.86672525 -2.42349803 19.51951916 1 19 C3.9254644 17.6490712 3.9254644 17.6490712 6 16 C5.05275873 18.36810318 4.34708866 19.75207953 2.25 21.25 C-0.74964262 22.24988087 -2.84689983 22.37837202 -6 22 C-9.00685874 20.38092222 -11.2581079 18.94422632 -13.375 16.25 C-14.35794662 12.71139216 -14.8890852 9.57001905 -14 6 C-10.33298565 0.85750059 -6.29958092 -0.93327125 0 0 Z " fill="#404040" transform="translate(294,315)"/>
<path d="M0 0 C4.29 0 8.58 0 13 0 C12.67 0.99 12.34 1.98 12 3 C9.36 2.67 6.72 2.34 4 2 C4 5.3 4 8.6 4 12 C6.64 11.34 9.28 10.68 12 10 C11.67 11.32 11.34 12.64 11 14 C8.69 13.67 6.38 13.34 4 13 C4 16.3 4 19.6 4 23 C9.1693489 22.59443869 9.1693489 22.59443869 14 21 C13.67 21.99 13.34 22.98 13 24 C9.04 24 5.08 24 1 24 C1.01160156 22.43507813 1.02320313 20.87015625 1.03515625 19.2578125 C1.04453363 17.21354286 1.05363389 15.16927193 1.0625 13.125 C1.07087891 12.09246094 1.07925781 11.05992187 1.08789062 9.99609375 C1.09111328 9.00996094 1.09433594 8.02382813 1.09765625 7.0078125 C1.10289307 6.09660645 1.10812988 5.18540039 1.11352539 4.24658203 C1.14885565 1.96312491 1.14885565 1.96312491 0 0 Z " fill="#272727" transform="translate(168,312)"/>
<path d="M0 0 C-0.33 0.99 -0.66 1.98 -1 3 C-2.65 2.67 -4.3 2.34 -6 2 C-6.85410401 4.29623869 -6.85410401 4.29623869 -7 7 C-5.368495 9.13256197 -5.368495 9.13256197 -3.0625 10.9375 C0.91638079 14.63765009 0.91638079 14.63765009 1.75 18.25 C0.80589456 21.71171996 0.03738942 23.0529555 -3 25 C-9.32142857 24.67857143 -9.32142857 24.67857143 -11 23 C-11.04063832 21.33382885 -11.042721 19.66611905 -11 18 C-10.62875 18.66 -10.2575 19.32 -9.875 20 C-8.09105222 22.35303045 -8.09105222 22.35303045 -4.8125 22.25 C-3.4203125 22.12625 -3.4203125 22.12625 -2 22 C-2 19.69 -2 17.38 -2 15 C-2.86625 14.62875 -2.86625 14.62875 -3.75 14.25 C-6.42884611 12.76175216 -8.11205049 11.42736366 -10 9 C-10.45319325 5.82764724 -10.52990283 3.93512264 -8.9375 1.125 C-5.99772876 -0.58196395 -3.32129197 -0.18799766 0 0 Z " fill="#2C2C2C" transform="translate(56,312)"/>
<path d="M0 0 C6.6 0 13.2 0 20 0 C19.67 0.99 19.34 1.98 19 3 C16.36 2.67 13.72 2.34 11 2 C11.33 9.26 11.66 16.52 12 24 C10.68 23.67 9.36 23.34 8 23 C8.33 16.07 8.66 9.14 9 2 C4.545 2.495 4.545 2.495 0 3 C0 2.01 0 1.02 0 0 Z " fill="#313131" transform="translate(145,312)"/>
<path d="M0 0 C2.99220268 1.36370299 5.29026529 2.94908083 7.75 5.125 C8.67039062 5.93324219 8.67039062 5.93324219 9.609375 6.7578125 C10.06828125 7.16773438 10.5271875 7.57765625 11 8 C10.67 8.99 10.34 9.98 10 11 C2.67784643 11.36010591 2.67784643 11.36010591 0 9.9375 C-1.54340102 6.94716052 -1.2441554 4.29609795 -1 1 C-0.67 0.67 -0.34 0.34 0 0 Z " fill="#F4F4F4" transform="translate(253,324)"/>
<path d="M0 0 C0.99 0 1.98 0 3 0 C3.33 7.59 3.66 15.18 4 23 C2.35 23 0.7 23 -1 23 C-0.67 15.41 -0.34 7.82 0 0 Z " fill="#414141" transform="translate(36,313)"/>
<path d="M0 0 C2.99220268 1.36370299 5.29026529 2.94908083 7.75 5.125 C8.67039062 5.93324219 8.67039062 5.93324219 9.609375 6.7578125 C10.06828125 7.16773438 10.5271875 7.57765625 11 8 C11.15149298 4.37114676 11.15149298 4.37114676 10 1 C11.32 1 12.64 1 14 1 C13.93039062 2.03060547 13.93039062 2.03060547 13.859375 3.08203125 C13.82328125 3.98308594 13.7871875 4.88414062 13.75 5.8125 C13.68039062 7.15248047 13.68039062 7.15248047 13.609375 8.51953125 C13.76018967 11.16674709 13.76018967 11.16674709 16.015625 12.82421875 C16.67046875 13.21222656 17.3253125 13.60023438 18 14 C15.03 13.67 12.06 13.34 9 13 C9 12.01 9 11.02 9 10 C7.26562238 8.19824344 7.26562238 8.19824344 5.0625 6.5 C1.1060241 3.31807229 1.1060241 3.31807229 0 0 Z " fill="#1B1B1B" transform="translate(254,322)"/>
<path d="M0 0 C0.66 0.33 1.32 0.66 2 1 C1.47731534 3.76276177 0.89130413 6.3260876 0 9 C-0.66515625 9.43957031 -1.3303125 9.87914062 -2.015625 10.33203125 C-4.25789697 11.87531028 -4.25789697 11.87531028 -4.609375 14.69921875 C-4.65578125 15.68535156 -4.7021875 16.67148438 -4.75 17.6875 C-4.80671875 18.68136719 -4.8634375 19.67523438 -4.921875 20.69921875 C-4.94765625 21.45847656 -4.9734375 22.21773437 -5 23 C-5.33 23 -5.66 23 -6 23 C-6.36801906 15.06714481 -5.77476512 8.4654395 -3 1 C-2.34 1.33 -1.68 1.66 -1 2 C-0.67 1.34 -0.34 0.68 0 0 Z " fill="#BAA66D" transform="translate(103,150)"/>
<path d="M0 0 C0.66 0 1.32 0 2 0 C2 8.58 2 17.16 2 26 C1.34 26 0.68 26 0 26 C-1.42861738 17.26956048 -0.65454448 8.77089601 0 0 Z " fill="#B9A46A" transform="translate(175,44)"/>
<path d="M0 0 C2.9765625 2.6640625 2.9765625 2.6640625 3.1875 5.6875 C3.125625 6.450625 3.06375 7.21375 3 8 C2.01 7.01 1.02 6.02 0 5 C-0.81756238 7.06049855 -1.62884734 9.12348853 -2.4375 11.1875 C-2.88996094 12.33605469 -3.34242188 13.48460937 -3.80859375 14.66796875 C-4.81093301 17.47123233 -5.52012795 20.07112576 -6 23 C-7.32 22.67 -8.64 22.34 -10 22 C-9.61328125 21.16597656 -9.2265625 20.33195312 -8.828125 19.47265625 C-5.83445236 13.00365573 -2.8668411 6.52627945 0 0 Z " fill="#252525" transform="translate(196,313)"/>
<path d="M0 0 C0.66 0.33 1.32 0.66 2 1 C1.505 1.66 1.01 2.32 0.5 3 C-1.37301866 6.74603732 -1.73004016 9.92714437 -1 14 C0.1195585 16.56868401 1.43495918 18.65243877 3 21 C-1.65922684 19.52866521 -1.65922684 19.52866521 -3.140625 17.23046875 C-4.67904702 13.23756432 -4.58397011 9.20322672 -4 5 C-2 1.875 -2 1.875 0 0 Z " fill="#161616" transform="translate(66,314)"/>
<path d="M0 0 C0.66 0 1.32 0 2 0 C2.99 3.3 3.98 6.6 5 10 C2.36 10 -0.28 10 -3 10 C-2.01 6.7 -1.02 3.4 0 0 Z " fill="#DFDFDF" transform="translate(123,317)"/>
<path d="M0 0 C0.66 0.33 1.32 0.66 2 1 C0.7625 2.0209375 0.7625 2.0209375 -0.5 3.0625 C-3.30934916 5.81746821 -3.30934916 5.81746821 -3.4375 9.5625 C-2.87943948 13.94726121 -2.29337649 15.93486642 1.125 18.75 C1.74375 19.1625 2.3625 19.575 3 20 C-0.2870282 19.72608098 -1.78993231 19.18168017 -4.3125 17 C-6.58525547 12.95954584 -7.13107194 9.53248395 -6 5 C-4.18364787 2.72693505 -2.48783929 1.60672954 0 0 Z " fill="#1A1A1A" transform="translate(310,316)"/>
<path d="M0 0 C2.83374881 3.20336822 3.5205537 5.78087253 4 10 C1.69 10 -0.62 10 -3 10 C-2.49287967 6.28111761 -1.88391785 3.26545761 0 0 Z " fill="#E2E2E2" transform="translate(196,317)"/>
<path d="M0 0 C2.26412144 3.39618215 2.52917385 5.55134952 3.0625 9.5625 C3.54951095 13.92811955 3.54951095 13.92811955 5 18 C3.35 18 1.7 18 0 18 C0 12.06 0 6.12 0 0 Z " fill="#101010" transform="translate(233,318)"/>
<path d="M0 0 C1.98 0 3.96 0 6 0 C5.67 0.66 5.34 1.32 5 2 C4.34 2 3.68 2 3 2 C2.82984375 2.54527344 2.6596875 3.09054687 2.484375 3.65234375 C0.67459186 9.28384978 -1.50345378 14.63939569 -4 20 C-4.99 19.67 -5.98 19.34 -7 19 C-6.34 19 -5.68 19 -5 19 C-4.87753906 18.27941406 -4.75507813 17.55882812 -4.62890625 16.81640625 C-3.80534626 13.12828979 -2.33709472 9.86040737 -0.83984375 6.40234375 C0.2200057 3.79483389 0.2200057 3.79483389 0 0 Z " fill="#3A3A3A" transform="translate(26,312)"/>
<path d="M0 0 C0.33 0 0.66 0 1 0 C1.33 2.97 1.66 5.94 2 9 C0.68 8.34 -0.64 7.68 -2 7 C-2.0825 7.66 -2.165 8.32 -2.25 9 C-3.24759791 12.99039163 -5.07166683 16.38549643 -7 20 C-7.99 19.67 -8.98 19.34 -10 19 C-9.34 19 -8.68 19 -8 19 C-7.73445312 18.15179688 -7.46890625 17.30359375 -7.1953125 16.4296875 C-5.95559534 12.87259054 -4.47517384 9.53406601 -2.875 6.125 C-2.33617187 4.97257812 -1.79734375 3.82015625 -1.2421875 2.6328125 C-0.62730469 1.32957031 -0.62730469 1.32957031 0 0 Z " fill="#3E3E3E" transform="translate(233,312)"/>
<path d="M0 0 C2.98052395 2.55473482 4.46340188 5.41460439 6 9 C6 10.32 6 11.64 6 13 C6.66 13 7.32 13 8 13 C8 14.32 8 15.64 8 17 C7.34 17 6.68 17 6 17 C4.99063464 14.921188 3.99282154 12.8367638 3 10.75 C2.443125 9.58984375 1.88625 8.4296875 1.3125 7.234375 C0 4 0 4 0 0 Z " fill="#222222" transform="translate(217,319)"/>
<path d="M0 0 C1.98 0 3.96 0 6 0 C3.69 4.62 1.38 9.24 -1 14 C-1.66 14 -2.32 14 -3 14 C-2.7834375 13.40832031 -2.566875 12.81664062 -2.34375 12.20703125 C-0.22239206 6.26339098 -0.22239206 6.26339098 0 0 Z " fill="#404040" transform="translate(106,312)"/>
<path d="M0 0 C0.66 0.66 1.32 1.32 2 2 C1.67 2.99 1.34 3.98 1 5 C0.34 4.01 -0.32 3.02 -1 2 C-4.08365871 1.7497843 -4.08365871 1.7497843 -7 2 C-7.33 4.64 -7.66 7.28 -8 10 C-8.66 9.67 -9.32 9.34 -10 9 C-10.35789474 3.63157895 -10.35789474 3.63157895 -8.9375 1.125 C-5.93267901 -0.61973477 -3.39189869 -0.30835443 0 0 Z " fill="#272727" transform="translate(262,312)"/>
<path d="M0 0 C3.83428028 -0.36516955 5.78812732 -0.11001082 9.25 1.6875 C12.07842969 4.06595224 13.02552263 5.49188148 14 9 C13.01 8.67 12.02 8.34 11 8 C10.67 6.68 10.34 5.36 10 4 C6.7 3.34 3.4 2.68 0 2 C0 1.34 0 0.68 0 0 Z " fill="#424242" transform="translate(312,315)"/>
<path d="M0 0 C3.81300782 3.2870757 5.22972246 6.39727838 7 11 C5.35 11 3.7 11 2 11 C1.855625 10.113125 1.71125 9.22625 1.5625 8.3125 C1.08980022 5.52882354 0.56929815 2.76516243 0 0 Z " fill="#161616" transform="translate(128,325)"/>
<path d="M0 0 C3 1 3 1 3.94921875 2.84765625 C4.19285156 3.57855469 4.43648437 4.30945313 4.6875 5.0625 C4.93886719 5.79597656 5.19023437 6.52945312 5.44921875 7.28515625 C5.63097656 7.85105469 5.81273437 8.41695313 6 9 C4.35 9 2.7 9 1 9 C0.67 6.03 0.34 3.06 0 0 Z " fill="#1A1A1A" transform="translate(201,327)"/>
<path d="M0 0 C3.875 1.875 3.875 1.875 5 3 C6.51469448 3.23192865 8.03754562 3.41215238 9.5625 3.5625 C10.38878906 3.64628906 11.21507812 3.73007812 12.06640625 3.81640625 C12.70449219 3.87699219 13.34257812 3.93757813 14 4 C14 4.33 14 4.66 14 5 C12.41753293 5.08153933 10.83383727 5.13943557 9.25 5.1875 C7.92742187 5.23970703 7.92742187 5.23970703 6.578125 5.29296875 C3.52389051 4.94589665 2.19435701 4.11745198 0 2 C0 1.34 0 0.68 0 0 Z " fill="#2B2B2B" transform="translate(250,331)"/>
<path d="M0 0 C0 0.66 0 1.32 0 2 C0.99 2.33 1.98 2.66 3 3 C-1.43076923 5.09230769 -1.43076923 5.09230769 -4.3125 4.625 C-4.869375 4.41875 -5.42625 4.2125 -6 4 C-2.25 0 -2.25 0 0 0 Z " fill="#9C8A57" transform="translate(113,135)"/>
<path d="M0 0 C0.33 0.66 0.66 1.32 1 2 C0.22265625 3.9453125 0.22265625 3.9453125 -0.9375 6.125 C-1.31777344 6.84945313 -1.69804688 7.57390625 -2.08984375 8.3203125 C-2.39019531 8.87460937 -2.69054687 9.42890625 -3 10 C-3.66 8.68 -4.32 7.36 -5 6 C-4.01 5.67 -3.02 5.34 -2 5 C-0.78130071 2.49552484 -0.78130071 2.49552484 0 0 Z " fill="#2A2A2A" transform="translate(103,326)"/>
<path d="M0 0 C1.32 0 2.64 0 4 0 C4.33 2.31 4.66 4.62 5 7 C4.34 7 3.68 7 3 7 C2.01 4.69 1.02 2.38 0 0 Z " fill="#151515" transform="translate(89,313)"/>
<path d="M0 0 C0.391875 0.61875 0.78375 1.2375 1.1875 1.875 C3.27717491 4.32496368 4.97463327 5.01879998 8 6 C5.39417629 6.93065133 4.35801776 7.14917407 1.75 6.0625 C1.1725 5.711875 0.595 5.36125 0 5 C0 3.35 0 1.7 0 0 Z " fill="#5A5A5A" transform="translate(45,330)"/>
<path d="M0 0 C1.32 0 2.64 0 4 0 C4 2.64 4 5.28 4 8 C3.34 7.67 2.68 7.34 2 7 C1.26924352 4.6859378 0.59861742 2.35171131 0 0 Z " fill="#272727" transform="translate(264,323)"/>
<path d="M0 0 C0 0.99 0 1.98 0 3 C-0.99 2.34 -1.98 1.68 -3 1 C-5.32387947 0.60612212 -7.65793749 0.26513915 -10 0 C-10 -0.33 -10 -0.66 -10 -1 C-5.92224809 -1.9267618 -3.57818963 -2.33958553 0 0 Z " fill="#C8C6C2" transform="translate(145,118)"/>
<path d="M0 0 C0.33 0 0.66 0 1 0 C1 1.65 1 3.3 1 5 C2.32 5.66 3.64 6.32 5 7 C5 7.33 5 7.66 5 8 C3.35 8 1.7 8 0 8 C0 5.36 0 2.72 0 0 Z " fill="#484848" transform="translate(233,328)"/>
</svg>
